<?xml version="1.0" encoding="utf-8"?>
<!-- Generator: Adobe Illustrator 16.0.0, SVG Export Plug-In . SVG Version: 6.00 Build 0)  -->
<!DOCTYPE svg PUBLIC "-//W3C//DTD SVG 1.1//EN" "http://www.w3.org/Graphics/SVG/1.1/DTD/svg11.dtd">
<svg version="1.1" id="Layer_1" xmlns="http://www.w3.org/2000/svg" xmlns:xlink="http://www.w3.org/1999/xlink" x="0px" y="0px"
	 width="29.133px" height="29.133px" viewBox="0 0 29.133 29.133" enable-background="new 0 0 29.133 29.133" xml:space="preserve">
<g>
	<path fill="#55AB47" d="M14.566,29.133C6.524,29.133,0,22.608,0,14.566S6.524,0,14.566,0s14.566,6.524,14.566,14.566
		S22.608,29.133,14.566,29.133z M24.012,10.622l-1.726-1.707c-0.228-0.228-0.531-0.36-0.854-0.36c-0.322,0-0.625,0.132-0.854,0.36
		l-7.738,7.719l-4.286-4.287c-0.228-0.228-0.531-0.36-0.854-0.36c-0.323,0-0.626,0.133-0.854,0.36l-1.726,1.707
		c-0.228,0.228-0.341,0.55-0.341,0.873s0.114,0.626,0.341,0.854l6.866,6.866c0.228,0.228,0.55,0.36,0.854,0.36
		c0.323,0,0.645-0.132,0.873-0.36l10.299-10.299c0.228-0.228,0.341-0.531,0.341-0.854C24.353,11.171,24.239,10.849,24.012,10.622z"
		/>
</g>
</svg>
